<?xml version="1.0" standalone="no"?>
<!DOCTYPE svg PUBLIC "-//W3C//DTD SVG 20010904//EN"
 "http://www.w3.org/TR/2001/REC-SVG-20010904/DTD/svg10.dtd">
<svg version="1.0" xmlns="http://www.w3.org/2000/svg"
 width="512.000000pt" height="512.000000pt" viewBox="0 0 512.000000 512.000000"
 preserveAspectRatio="xMidYMid meet">

<g transform="translate(0.000000,512.000000) scale(0.100000,-0.100000)"
fill="#000000" stroke="none">
<path d="M3455 5113 c-57 -8 -177 -45 -258 -79 -357 -153 -624 -473 -703 -844
-14 -66 -19 -255 -8 -284 11 -29 129 -19 269 24 335 102 623 407 728 770 34
115 51 256 42 346 -7 79 -3 76 -70 67z"/>
<path d="M1496 3905 c-273 -52 -526 -200 -742 -436 -196 -214 -310 -467 -358
-794 -61 -423 10 -919 199 -1390 152 -378 399 -770 634 -1006 208 -208 384
-290 590 -276 105 7 155 22 339 98 173 72 263 97 404 109 201 18 361 -11 586
-109 171 -74 226 -90 327 -97 301 -21 578 192 920 710 62 94 140 221 173 281
59 106 172 345 172 363 0 5 -29 21 -64 36 -151 65 -345 226 -446 372 -269 389
-278 895 -22 1283 60 91 202 230 300 295 l90 60 -59 67 c-202 227 -478 386
-748 433 -228 39 -435 10 -741 -104 -204 -76 -276 -93 -405 -93 -135 1 -201
16 -447 100 -102 35 -226 72 -275 83 -121 27 -324 34 -427 15z"/>
</g>
</svg>
