<svg version="1.1" id="Layer_1" xmlns="http://www.w3.org/2000/svg" xmlns:xlink="http://www.w3.org/1999/xlink" x="0px" y="0px"
	 width="100%" viewBox="0 0 512 512" enable-background="new 0 0 512 512" xml:space="preserve">
<path fill="#FFFFFF" opacity="1.000000" stroke="none" 
	d="
M513.000000,267.000000 
	C513.000000,348.964508 513.000000,430.928986 513.000000,512.946777 
	C342.442719,512.946777 171.885406,512.946777 1.000000,512.946777 
	C1.000000,431.644958 1.000000,350.289459 1.354023,268.556213 
	C4.508520,272.652130 6.586714,277.844543 10.217010,281.492340 
	C72.168640,343.742615 134.251160,405.863220 196.489014,467.827362 
	C204.558121,475.860962 215.413437,478.796265 226.257950,476.616486 
	C242.628189,473.326019 253.889420,464.320465 256.278473,446.018036 
	C257.791656,434.425537 255.041809,424.364624 247.658188,416.510895 
	C226.818939,394.344849 205.169693,372.938782 183.773148,351.298950 
	C171.470322,338.856232 159.155960,326.420013 146.599884,314.235291 
	C142.307114,310.069489 137.451187,306.403168 132.507004,303.012482 
	C127.728844,299.735687 122.505661,297.107819 117.141586,294.000000 
	C119.332230,294.000000 121.146538,294.000000 122.960838,294.000000 
	C240.949905,294.000000 358.938965,294.001068 476.928040,293.998016 
	C486.641296,293.997772 495.240204,290.679138 501.674713,283.562256 
	C506.119019,278.646545 509.270691,272.562164 513.000000,267.000000 
z"/>
<path fill="#FFFFFF" opacity="1.000000" stroke="none" 
	d="
M1.000001,246.000000 
	C1.000000,164.368652 1.000000,82.737297 1.000000,1.052973 
	C171.557541,1.052973 342.115112,1.052973 513.000000,1.052973 
	C513.000000,83.021721 513.000000,165.043884 512.635986,247.422256 
	C507.775452,231.234528 493.740143,220.089828 476.690399,220.070435 
	C359.033325,219.936615 241.376038,220.000000 123.718803,220.000000 
	C121.983757,220.000000 120.248718,220.000000 117.044724,220.000000 
	C128.060272,215.823471 136.357101,210.080460 143.589676,202.867432 
	C177.219910,169.328140 210.779022,135.717499 244.369812,102.138641 
	C249.851440,96.658958 253.685867,90.253777 255.706268,82.734062 
	C259.566040,68.368500 253.031021,51.684677 241.890610,43.880039 
	C225.867599,32.654812 205.722992,35.804726 192.424347,49.096100 
	C133.016006,108.471992 73.621689,167.861938 14.256158,227.280655 
	C9.313924,232.227280 4.579013,237.382309 2.783484,244.492615 
	C2.628571,245.106079 1.614811,245.502670 1.000001,246.000000 
z"/>
<path fill="#000000" opacity="1.000000" stroke="none" 
	d="
M1.000001,246.468567 
	C1.614811,245.502670 2.628571,245.106079 2.783484,244.492615 
	C4.579013,237.382309 9.313924,232.227280 14.256158,227.280655 
	C73.621689,167.861938 133.016006,108.471992 192.424347,49.096100 
	C205.722992,35.804726 225.867599,32.654812 241.890610,43.880039 
	C253.031021,51.684677 259.566040,68.368500 255.706268,82.734062 
	C253.685867,90.253777 249.851440,96.658958 244.369812,102.138641 
	C210.779022,135.717499 177.219910,169.328140 143.589676,202.867432 
	C136.357101,210.080460 128.060272,215.823471 117.044724,220.000000 
	C120.248718,220.000000 121.983757,220.000000 123.718803,220.000000 
	C241.376038,220.000000 359.033325,219.936615 476.690399,220.070435 
	C493.740143,220.089828 507.775452,231.234528 512.635986,247.889236 
	C513.000000,254.021149 513.000000,260.042297 513.000000,266.531738 
	C509.270691,272.562164 506.119019,278.646545 501.674713,283.562256 
	C495.240204,290.679138 486.641296,293.997772 476.928040,293.998016 
	C358.938965,294.001068 240.949905,294.000000 122.960838,294.000000 
	C121.146538,294.000000 119.332230,294.000000 117.141586,294.000000 
	C122.505661,297.107819 127.728844,299.735687 132.507004,303.012482 
	C137.451187,306.403168 142.307114,310.069489 146.599884,314.235291 
	C159.155960,326.420013 171.470322,338.856232 183.773148,351.298950 
	C205.169693,372.938782 226.818939,394.344849 247.658188,416.510895 
	C255.041809,424.364624 257.791656,434.425537 256.278473,446.018036 
	C253.889420,464.320465 242.628189,473.326019 226.257950,476.616486 
	C215.413437,478.796265 204.558121,475.860962 196.489014,467.827362 
	C134.251160,405.863220 72.168640,343.742615 10.217010,281.492340 
	C6.586714,277.844543 4.508520,272.652130 1.354023,268.089233 
	C1.000000,260.979065 1.000000,253.958099 1.000001,246.468567 
z"/>
</svg>