<?xml version="1.0" standalone="no"?>
<!DOCTYPE svg PUBLIC "-//W3C//DTD SVG 20010904//EN"
 "http://www.w3.org/TR/2001/REC-SVG-20010904/DTD/svg10.dtd">
<svg version="1.0" xmlns="http://www.w3.org/2000/svg"
 width="512.000000pt" height="512.000000pt" viewBox="0 0 512.000000 512.000000"
 preserveAspectRatio="xMidYMid meet">

<g transform="translate(0.000000,512.000000) scale(0.100000,-0.100000)"
fill="#000000" stroke="none">
<path d="M3295 5109 c-676 -71 -1248 -562 -1419 -1220 -70 -271 -69 -579 5
-848 l20 -75 -935 -935 c-513 -515 -941 -950 -950 -968 -14 -28 -16 -90 -16
-488 0 -437 1 -457 20 -495 13 -26 34 -47 60 -60 38 -19 58 -20 498 -20 l458
0 45 29 c24 15 92 78 151 138 133 138 136 145 116 313 -10 84 -11 123 -4 126
6 2 81 10 167 18 173 17 193 22 231 62 34 37 43 77 58 252 7 78 16 144 19 146
3 2 58 -3 121 -11 133 -16 167 -12 211 24 51 44 59 75 59 243 l0 150 149 0
c82 0 162 5 178 10 15 6 105 86 198 178 94 92 186 182 206 200 l36 33 99 -25
c266 -67 509 -72 773 -14 134 28 247 70 391 144 779 401 1099 1372 715 2169
-303 629 -964 997 -1660 924z m748 -792 c339 -123 404 -570 115 -783 -86 -63
-167 -87 -281 -82 -146 7 -247 58 -337 171 -58 72 -83 145 -88 254 -3 76 0
104 18 158 42 126 147 234 274 281 87 32 211 33 299 1z"/>
</g>
</svg>
