<?xml version="1.0" encoding="UTF-8"?>
<svg version="1.1" xmlns="http://www.w3.org/2000/svg" width="512" height="512">
<path d="M0 0 C12.78957359 12.86122386 14.66447368 41.08043483 16.6875 58.1875 C16.81898438 59.24582031 16.95046875 60.30414063 17.0859375 61.39453125 C22.60565106 114.72689879 5.60418506 169.41598446 -27.3125 211.375 C-30.80977176 215.66964972 -34.48719591 219.78586516 -38.234375 223.86328125 C-39.65751599 225.45495209 -41.02718903 227.09560775 -42.34765625 228.7734375 C-44.11965397 230.95056393 -45.86282542 232.69437871 -48 234.5 C-50.13135354 236.31516373 -52.24787516 238.12781706 -54.3046875 240.02734375 C-83.4223225 266.89248246 -122.36301712 284.24677165 -161.3125 290.1875 C-162.34987305 290.35886475 -162.34987305 290.35886475 -163.40820312 290.53369141 C-215.23844489 298.88741948 -272.54845713 285.64750247 -315.3125 255.1875 C-319.33316186 252.21439105 -323.32850482 249.2096291 -327.3125 246.1875 C-327.32651855 247.86706787 -327.32651855 247.86706787 -327.34082031 249.58056641 C-327.38082161 253.75186316 -327.44660805 257.92243022 -327.52001953 262.09326172 C-327.54817053 263.89524939 -327.56941422 265.69735919 -327.58349609 267.49951172 C-327.60500755 270.09666198 -327.65169757 272.69235295 -327.703125 275.2890625 C-327.70496796 276.48941635 -327.70496796 276.48941635 -327.70684814 277.71401978 C-327.87460542 284.18261356 -330.02677131 287.77115824 -334.5 292.5 C-338.39210708 294.83526425 -341.79923643 295.37361396 -346.3125 295.1875 C-352.21024456 293.51647238 -354.83774841 290.99083308 -358.3125 286.1875 C-359.80187017 283.20875967 -359.46850899 280.16243175 -359.47363281 276.89550781 C-359.47859772 276.14407501 -359.48356262 275.39264221 -359.48867798 274.61843872 C-359.50331408 272.1258249 -359.51010494 269.63327478 -359.515625 267.140625 C-359.52137646 265.40907794 -359.52713419 263.6775309 -359.53289795 261.94598389 C-359.54341287 258.31099144 -359.54925192 254.67602114 -359.55273438 251.04101562 C-359.55821191 246.38937361 -359.58222189 241.73802539 -359.61070633 237.08647537 C-359.62935896 233.50733597 -359.63453976 229.92826685 -359.63607025 226.34908295 C-359.63909275 224.63471627 -359.64710771 222.92035072 -359.66025543 221.2060318 C-359.67736665 218.80281983 -359.67542324 216.40031898 -359.66894531 213.99707031 C-359.6781601 213.29242645 -359.68737488 212.58778259 -359.6968689 211.86178589 C-359.64993593 206.28575951 -358.19129861 202.32769668 -354.515625 198.140625 C-353.87109375 197.57859375 -353.2265625 197.0165625 -352.5625 196.4375 C-351.92828125 195.86515625 -351.2940625 195.2928125 -350.640625 194.703125 C-345.55324858 191.39120881 -340.05159814 190.93519035 -334.11132812 190.9128418 C-333.42904648 190.90773087 -332.74676483 190.90261993 -332.04380798 190.89735413 C-329.81036368 190.88356462 -327.57723155 190.88440643 -325.34375 190.88671875 C-323.77868538 190.88282663 -322.2136218 190.8784909 -320.64855957 190.87373352 C-317.37716234 190.86629471 -314.10587308 190.86654603 -310.83447266 190.87182617 C-306.65497184 190.87762496 -302.47591358 190.86066883 -298.2964859 190.8374815 C-295.06729577 190.82270926 -291.83821147 190.82187706 -288.60899353 190.82499123 C-287.06850812 190.82448001 -285.52801647 190.81927988 -283.98756409 190.80917931 C-281.82931169 190.79676047 -279.67191192 190.80363751 -277.51367188 190.81518555 C-276.28902222 190.81455612 -275.06437256 190.8139267 -273.8026123 190.8132782 C-269.1726847 191.3097149 -265.13800039 192.57893127 -261.5703125 195.72265625 C-257.3073761 201.4702705 -256.57678305 205.07556947 -257.3125 212.1875 C-258.60136751 216.54666337 -260.68465818 218.75149873 -264.40625 221.3359375 C-271.1262892 224.53544661 -279.01926675 223.87084558 -286.3125 223.9375 C-287.86591819 223.96569683 -289.41930589 223.99562938 -290.97265625 224.02734375 C-294.75254909 224.10077072 -298.53208122 224.15061166 -302.3125 224.1875 C-262.13638657 252.48243923 -215.3993086 265.61451621 -166.3125 258.1875 C-145.82430232 254.61920649 -126.57164157 248.10812393 -108.3125 238.1875 C-107.70712402 237.86668457 -107.10174805 237.54586914 -106.47802734 237.21533203 C-94.20372881 230.69574913 -83.71964748 222.61618532 -73.51953125 213.20703125 C-71.59767848 211.44845093 -69.63602511 209.77930225 -67.625 208.125 C-63.7628141 204.81968741 -60.52734793 201.11675858 -57.3125 197.1875 C-56.56097656 196.27355469 -55.80945313 195.35960937 -55.03515625 194.41796875 C-29.23001628 162.00866973 -14.77952724 122.47666372 -15 81 C-15.00182281 80.28205261 -15.00364563 79.56410522 -15.00552368 78.82440186 C-15.0945512 57.90148486 -18.54983562 37.98606942 -25.75024414 18.30419922 C-27.14972707 13.03562911 -26.02141687 8.50755209 -23.5 3.8125 C-17.19737618 -3.75064859 -8.64785196 -4.73184353 0 0 Z " fill="#000000" transform="translate(450.3125,175.8125)"/>
<path d="M0 0 C4.0068062 3.29632098 5.72315629 7.31019205 6.40919495 12.307724 C6.435628 13.66706498 6.44080658 15.02693717 6.42797852 16.38647461 C6.43659409 17.13542496 6.44520966 17.88437531 6.4540863 18.65602112 C6.47664128 21.11218621 6.47002712 23.5672005 6.4609375 26.0234375 C6.46617794 27.74305049 6.47245595 29.46266061 6.47972107 31.18226624 C6.49010606 34.77911952 6.48559163 38.37557672 6.47094727 41.97241211 C6.45376618 46.56687724 6.47725558 51.16009092 6.51243687 55.75441647 C6.53446715 59.3036772 6.53295579 62.85264111 6.52467155 66.40194893 C6.52385503 68.09512263 6.53066093 69.78831878 6.54544258 71.48142815 C6.67199687 88.60026347 6.67199687 88.60026347 0.89453125 94.55859375 C-4.30528455 99.37793522 -7.99145275 100.80599934 -15.07373047 100.84912109 C-16.11353561 100.85919693 -16.11353561 100.85919693 -17.17434692 100.86947632 C-19.46135669 100.88844254 -21.74807277 100.89237979 -24.03515625 100.89453125 C-25.62932454 100.90096025 -27.22349165 100.90768869 -28.81765747 100.91470337 C-32.15825129 100.92667274 -35.49874172 100.93038456 -38.83935547 100.92919922 C-43.11218676 100.92899607 -47.38435263 100.95629493 -51.65702629 100.99074364 C-54.94966657 101.01302234 -58.24214696 101.01703647 -61.53485489 101.01597977 C-63.10967425 101.01833439 -64.68449811 101.02715019 -66.25924301 101.0426445 C-68.4661035 101.06232496 -70.67153257 101.05645996 -72.87841797 101.04443359 C-74.75894363 101.04870865 -74.75894363 101.04870865 -76.67745972 101.05307007 C-81.90574066 100.29891187 -84.95398438 97.80098478 -88.48046875 93.99609375 C-90.78502102 89.12107933 -90.87190819 84.86045835 -90.10546875 79.55859375 C-88.1334536 75.22016043 -85.65800436 72.72169525 -81.48413086 70.40795898 C-76.14038848 68.49983215 -70.27941403 68.87091167 -64.66796875 68.80859375 C-62.71213867 68.76412109 -62.71213867 68.76412109 -60.71679688 68.71875 C-57.51295958 68.64833599 -54.3098382 68.59549506 -51.10546875 68.55859375 C-57.12559786 64.08143602 -63.08834812 59.67927959 -69.66796875 56.05859375 C-70.67186646 55.5030481 -70.67186646 55.5030481 -71.69604492 54.9362793 C-113.50985067 32.22934838 -162.05564768 26.03713942 -208.03637695 39.02075195 C-254.52565749 52.8994582 -293.54201987 83.13357893 -316.79736328 125.92138672 C-331.0157059 152.83865646 -338.588091 181.22180917 -338.41796875 211.74609375 C-338.41548126 212.46603516 -338.41299377 213.18597656 -338.41043091 213.92773438 C-338.31506157 231.85816135 -335.66644969 247.79863542 -330.53100586 264.98632812 C-325.87185627 280.61181709 -325.87185627 280.61181709 -328.96875 287.73046875 C-331.39351945 291.63009797 -334.73009244 293.79372258 -339.05859375 295.1875 C-344.22966152 296.15453039 -348.55655682 295.14781817 -353.10546875 292.55859375 C-359.8594439 286.36744986 -361.9589357 275.26606062 -364.16796875 266.68359375 C-364.42473389 265.69125732 -364.68149902 264.6989209 -364.94604492 263.67651367 C-367.35796002 254.05412899 -368.93888345 244.40252866 -370.10546875 234.55859375 C-370.23695313 233.511875 -370.3684375 232.46515625 -370.50390625 231.38671875 C-375.75681027 181.12920458 -360.99668122 128.15484309 -331.10546875 87.55859375 C-330.65349121 86.93984375 -330.20151367 86.32109375 -329.73583984 85.68359375 C-312.14526692 61.84416085 -289.96431495 42.01014523 -264.10546875 27.55859375 C-263.51620605 27.22021484 -262.92694336 26.88183594 -262.31982422 26.53320312 C-234.68979342 10.68400531 -201.62968703 0.55121683 -169.65234375 0.35546875 C-168.87827682 0.34845444 -168.1042099 0.34144012 -167.3066864 0.33421326 C-164.82288718 0.31681642 -162.33932667 0.31036094 -159.85546875 0.30859375 C-159.0051004 0.30791901 -158.15473206 0.30724426 -157.27859497 0.30654907 C-144.32291129 0.32287778 -131.81615427 0.85783657 -119.10546875 3.55859375 C-118.25855469 3.7302002 -117.41164063 3.90180664 -116.5390625 4.07861328 C-92.03132853 9.12724257 -69.03980944 18.12495449 -47.60546875 31.05859375 C-46.93692871 31.46045898 -46.26838867 31.86232422 -45.57958984 32.27636719 C-38.73312367 36.54728181 -32.44956079 41.58751319 -26.10546875 46.55859375 C-26.0914502 44.87902588 -26.0914502 44.87902588 -26.07714844 43.16552734 C-26.03714714 38.99423059 -25.9713607 34.82366353 -25.89794922 30.65283203 C-25.86979822 28.85084436 -25.84855453 27.04873456 -25.83447266 25.24658203 C-25.8129612 22.64943177 -25.76627118 20.0537408 -25.71484375 17.45703125 C-25.71361511 16.65679535 -25.71238647 15.85655945 -25.71112061 15.03207397 C-25.5744331 9.76150718 -24.55190713 6.7623604 -21.10546875 2.55859375 C-14.35407906 -3.53412378 -8.05723555 -3.69221588 0 0 Z " fill="#000000" transform="translate(415.10546875,44.44140625)"/>
</svg>
