<?xml version="1.0" encoding="UTF-8"?>
<svg version="1.1" xmlns="http://www.w3.org/2000/svg" width="512" height="512">
<path d="M0 0 C1.30565918 -0.02239746 2.61131836 -0.04479492 3.95654297 -0.06787109 C10.9457657 -0.05067187 15.77483539 0.07828096 21.375 4.4375 C25.3984382 8.99033796 26.63565458 13.46329711 26.375 19.4375 C24.80302215 24.67742615 22.57024581 27.94146183 18.375 31.4375 C14.66229398 33.25941813 11.91799509 33.61243454 7.8125 33.4375 C-22.02345246 33.03202839 -50.90653184 41.73309064 -73.625 61.4375 C-74.43324219 62.10136719 -75.24148437 62.76523438 -76.07421875 63.44921875 C-97.82764122 81.92426044 -111.28492983 110.03927379 -113.88716125 138.28289795 C-114.58159465 147.15043577 -114.77299396 155.95466566 -114.79366493 164.84519768 C-114.80099993 167.35208173 -114.81678642 169.85878827 -114.83500671 172.36561584 C-114.88668133 179.48338302 -114.9352846 186.60104359 -114.95092773 193.71899414 C-115.0895351 248.4557168 -128.4044444 294.88350617 -167.19824219 335.03027344 C-169.98280464 337.7767173 -172.99673589 340.25232942 -176.078125 342.65625 C-177.84904892 344.38008914 -177.84904892 344.38008914 -178.046875 347.03125 C-177.90765625 347.8253125 -177.7684375 348.619375 -177.625 349.4375 C-174.15811616 351.7487559 -172.85775682 351.68793704 -168.76971531 351.68918228 C-167.54005372 351.69439778 -166.31039212 351.69961327 -165.04346806 351.70498681 C-163.67160202 351.7006623 -162.29973657 351.69614897 -160.9278717 351.69146729 C-159.47620199 351.69377035 -158.02453343 351.69694583 -156.57286733 351.70092177 C-152.57398234 351.70929977 -148.57519235 351.70513092 -144.57630694 351.69894934 C-140.26744278 351.69443805 -135.95859536 351.70140204 -131.6497345 351.70690918 C-123.2045201 351.71581924 -114.75934118 351.71387394 -106.31412537 351.7080839 C-99.45209926 351.70357344 -92.59008312 351.70295183 -85.72805595 351.70513153 C-84.26500726 351.70559123 -84.26500726 351.70559123 -82.77240203 351.70606022 C-80.79116555 351.70669965 -78.80992908 351.70734807 -76.82869261 351.7080054 C-58.23449228 351.71371349 -39.64031165 351.70714345 -21.04611456 351.69640467 C-5.0815958 351.68747012 10.88289388 351.68901947 26.84741211 351.69824219 C45.37196522 351.70893878 63.89650104 351.71316265 82.42105681 351.70701766 C84.39545126 351.70638054 86.36984573 351.7057518 88.34424019 351.70513153 C89.31575919 351.70482298 90.28727819 351.70451443 91.28823717 351.70419653 C98.14376589 351.70246765 104.99928368 351.70538887 111.85481071 351.71009064 C120.20698798 351.71569275 128.55912765 351.71419722 136.91130059 351.70352915 C141.17502407 351.69826318 145.43868479 351.69623138 149.70240784 351.70282745 C153.60261618 351.70877002 157.50270336 351.70553993 161.40290064 351.69487235 C162.81673429 351.69263109 164.23057808 351.69379079 165.64440524 351.69862393 C167.56088791 351.70467476 169.47739911 351.69729363 171.39387417 351.68918228 C172.99309519 351.68869522 172.99309519 351.68869522 174.62462372 351.68819833 C177.37966346 351.43707492 179.02855615 350.85772068 181.375 349.4375 C181.375 347.4575 181.375 345.4775 181.375 343.4375 C180.79105469 343.17662598 180.20710938 342.91575195 179.60546875 342.64697266 C153.19172765 328.32410998 134.07601915 288.27854124 125.65234375 260.90234375 C124.34763462 256.44369302 123.17592143 251.96259126 122.125 247.4375 C121.97377686 246.7993335 121.82255371 246.16116699 121.66674805 245.50366211 C118.676042 231.64441621 118.00158304 217.41704046 118.00439453 203.28369141 C117.99993922 200.7783189 117.9631849 198.27460433 117.92578125 195.76953125 C117.91992431 194.1458392 117.91594742 192.52213902 117.9140625 190.8984375 C117.89250595 189.79826797 117.89250595 189.79826797 117.87051392 188.6758728 C117.91811344 183.24477474 119.28843724 178.94413708 122.375 174.4375 C127.16810347 170.62258091 131.08000065 169.06551472 137.25 169.15625 C142.1047621 169.79879204 145.45838535 172.44852103 148.75 176 C151.59703727 180.27055591 151.53715858 184.13185864 151.5859375 189.0859375 C151.61150967 190.65455418 151.63790899 192.22315754 151.66503906 193.79174805 C151.67829224 194.61202484 151.69154541 195.43230164 151.7052002 196.2774353 C152.3822698 234.59044292 159.53067622 270.67889028 185.375 300.4375 C186.38626953 301.63052734 186.38626953 301.63052734 187.41796875 302.84765625 C191.70781822 307.77824826 196.26909503 312.20699969 201.125 316.5625 C209.68687768 324.31692995 214.57542724 332.04198603 215.6953125 343.80078125 C216.07595694 355.41043664 213.27996728 364.81217599 205.375 373.4375 C199.69767206 379.19497845 192.52252976 384.08527952 184.2273674 384.56054783 C183.44937412 384.55962604 182.67138084 384.55870424 181.86981201 384.55775452 C180.97241302 384.55912918 180.07501404 384.56050385 179.15042114 384.56192017 C178.17362396 384.55832489 177.19682678 384.55472961 176.19042969 384.55102539 C175.1559671 384.55117142 174.12150452 384.55131744 173.05569458 384.5514679 C169.63606673 384.55077117 166.21649334 384.54298994 162.796875 384.53515625 C160.42604604 384.53329122 158.05521669 384.53186772 155.68438721 384.53086853 C149.44383684 384.52705006 143.20330973 384.51722545 136.96276855 384.50616455 C130.5949739 384.49593606 124.2271755 384.49136782 117.859375 384.48632812 C105.36457311 384.47560262 92.86978849 384.45853419 80.375 384.4375 C80.1765876 385.46436668 80.1765876 385.46436668 79.97416687 386.51197815 C79.79795303 387.41109421 79.6217392 388.31021027 79.44018555 389.23657227 C79.26666061 390.12740005 79.09313568 391.01822784 78.91435242 391.93605042 C74.90690444 410.52209687 61.20349336 426.33238902 45.6171875 436.47265625 C25.81182429 448.47518359 3.02990302 452.34863285 -19.75 446.9375 C-31.93210349 442.99255429 -43.1713012 437.12468268 -52.625 428.4375 C-53.33011719 427.80070312 -54.03523437 427.16390625 -54.76171875 426.5078125 C-64.88813026 416.90218787 -71.82197845 404.88445659 -75.80078125 391.55078125 C-76.14665283 390.40005127 -76.49252441 389.24932129 -76.84887695 388.0637207 C-77.10499756 387.19706787 -77.36111816 386.33041504 -77.625 385.4375 C-79.56153191 385.43203156 -79.56153191 385.43203156 -81.53718567 385.42645264 C-93.73359313 385.38943119 -105.92974977 385.33158016 -118.12596607 385.25359726 C-124.39542973 385.21417251 -130.66475397 385.18195931 -136.93432617 385.16650391 C-142.99048216 385.15130467 -149.04625475 385.11680039 -155.10223961 385.06919098 C-157.4069249 385.05441098 -159.71166494 385.04646094 -162.01639748 385.04561615 C-165.25719185 385.04323463 -168.4969368 385.01605846 -171.73754883 384.98339844 C-172.67982834 384.9884288 -173.62210785 384.99345917 -174.59294128 384.99864197 C-184.69875224 384.84217739 -194.33756205 381.63249687 -201.625 374.4375 C-210.58553126 363.85433732 -212.6988109 353.94411509 -211.83642578 340.39941406 C-210.62044651 329.11580044 -202.40767019 320.79873504 -194.3125 313.625 C-188.12576969 307.97624624 -182.58548899 302.22020944 -177.625 295.4375 C-177.23006348 294.90108887 -176.83512695 294.36467773 -176.42822266 293.81201172 C-153.91560275 262.85606224 -148.6280745 228.31933585 -148.31640625 190.9453125 C-148.30942278 190.12428291 -148.30243931 189.30325333 -148.29524422 188.45734406 C-148.23357019 180.75648396 -148.19613852 173.05554314 -148.16870117 165.35449219 C-148.15263609 161.09380149 -148.12225713 156.83338712 -148.08393669 152.57284164 C-148.07248755 150.97925666 -148.06635815 149.38562211 -148.06625557 147.791996 C-148.06499089 133.40343929 -146.27509044 119.49967199 -142.0625 105.6875 C-141.81419434 104.87023437 -141.56588867 104.05296875 -141.31005859 103.2109375 C-136.6697218 88.69713305 -129.79163454 74.62856386 -120.625 62.4375 C-120.00238281 61.60605469 -119.37976563 60.77460937 -118.73828125 59.91796875 C-96.57083855 31.36558312 -67.85351279 12.17351242 -32.625 3.4375 C-31.95178711 3.26105957 -31.27857422 3.08461914 -30.58496094 2.90283203 C-20.5007684 0.33728733 -10.35341952 0.11015266 0 0 Z M-42.625 384.4375 C-38.44608904 396.97423287 -30.22615117 405.92777189 -18.375 411.875 C-6.07358134 417.05834425 6.52795691 417.9649384 19.01953125 412.984375 C32.92182212 406.64689113 40.41089726 398.35373974 46.375 384.4375 C17.005 384.4375 -12.365 384.4375 -42.625 384.4375 Z " fill="#000000" transform="translate(232.625,63.5625)"/>
<path d="M0 0 C22.47389172 18.2806214 37.04701559 43.48141312 40.53393555 72.43945312 C42.99012133 104.26608575 33.81640404 133.00752105 13.2487793 157.40820312 C-6.18098251 178.60833047 -33.46243538 190.59383516 -61.9465332 192.25195312 C-92.01157972 192.9692107 -118.78897967 182.36468567 -141.08325195 162.44726562 C-160.03256664 144.37253469 -172.66021011 119.02233999 -173.42700195 92.63867188 C-173.63675303 78.6344809 -173.57805084 65.42318264 -169.1887207 52.03320312 C-168.87523682 51.06519775 -168.87523682 51.06519775 -168.55541992 50.07763672 C-159.09232245 21.92935202 -138.47320985 0.27693155 -112.20239258 -12.96826172 C-107.96464961 -14.97113659 -103.64837652 -16.53694846 -99.1887207 -17.96679688 C-98.23304199 -18.27786377 -98.23304199 -18.27786377 -97.25805664 -18.59521484 C-64.53739857 -28.78517852 -26.71736602 -21.01771475 0 0 Z M-119.1887207 32.03320312 C-134.18296701 47.58820986 -140.86643258 66.12434381 -140.65966797 87.54272461 C-140.0961083 105.63792291 -133.28125348 121.58086747 -121.1887207 135.03320312 C-120.67051758 135.64421875 -120.15231445 136.25523437 -119.6184082 136.88476562 C-107.09869437 150.66274216 -87.99285578 157.76029163 -69.87231445 159.31835938 C-49.45963314 159.89442277 -30.33373159 152.281354 -15.5637207 138.36523438 C-14.7799707 137.59566406 -13.9962207 136.82609375 -13.1887207 136.03320312 C-12.1368457 135.01806641 -12.1368457 135.01806641 -11.0637207 133.98242188 C2.3540105 120.06676705 8.22274622 100.6596129 8.02612305 81.63085938 C6.74600256 60.19466002 -2.9952862 42.376891 -18.4934082 27.87695312 C-48.32518519 2.44658586 -91.31379045 5.56265867 -119.1887207 32.03320312 Z " fill="#000000" transform="translate(450.188720703125,21.966796875)"/>
</svg>
