<?xml version="1.0" encoding="UTF-8"?>
<svg version="1.1" xmlns="http://www.w3.org/2000/svg" width="512" height="512">
<path d="M0 0 C1.07507813 0.48984375 2.15015625 0.9796875 3.2578125 1.484375 C13.45864604 6.55116265 22.57859906 13.11913343 31.85546875 19.6875 C39.02408189 24.75284412 46.33572056 29.59531474 53.66772461 34.41992188 C58.3435774 37.50986741 62.94695938 40.6590627 67.46484375 43.9765625 C73.12632761 48.132279 78.94802371 52.01330483 84.8125 55.875 C91.27939276 60.15739764 97.72219651 64.44415245 104 69 C110.21784628 73.51098652 116.59668684 77.75721793 123 82 C130.50044296 86.96973115 137.8940793 92.02030355 145.17578125 97.3046875 C151.39956032 101.75049226 157.82583517 105.91137952 164.21289062 110.1171875 C169.99737574 113.94037661 175.64113737 117.90041487 181.22924805 122.00439453 C185.99517421 125.43700361 190.9078423 128.64533515 195.8125 131.875 C202.27939276 136.15739764 208.72219651 140.44415245 215 145 C221.21784628 149.51098652 227.59668684 153.75721793 234 158 C241.5043707 162.97233364 248.90125066 168.02639754 256.1875 173.3125 C261.36534831 177.01096308 266.69653322 180.48558125 272 184 C280.7982268 189.8354341 289.48220577 195.7623875 298 202 C299.05316406 202.74378906 300.10632813 203.48757812 301.19140625 204.25390625 C314.62513779 213.92148527 325.19437266 226.3793982 328.5 243 C328.70775561 244.66204487 328.87910057 246.32938967 329 248 C329.05671875 248.680625 329.1134375 249.36125 329.171875 250.0625 C329.25302516 252.07502398 329.17039724 253.99309915 329 256 C328.93167969 256.80695313 328.86335938 257.61390625 328.79296875 258.4453125 C326.55190899 275.33945528 315.71184213 288.86949386 302.56494141 298.95043945 C297.19269322 302.95648776 291.64373434 306.68298472 286.03515625 310.34765625 C281.56276672 313.27203871 277.15553465 316.28866244 272.75 319.3125 C271.95118408 319.86019043 271.15236816 320.40788086 270.3293457 320.97216797 C268.69919069 322.09005382 267.06922747 323.2082194 265.43945312 324.32666016 C261.4621984 327.0548531 257.48093208 329.77717718 253.5 332.5 C251.9166467 333.58330415 250.33331338 334.66663751 248.75 335.75 C188.58333333 376.91666667 128.41666667 418.08333333 68.25 459.25 C67.46665283 459.7860083 66.68330566 460.3220166 65.8762207 460.87426758 C64.28894603 461.96022895 62.70154316 463.04600297 61.11401367 464.1315918 C57.21492276 466.79821374 53.31793385 469.46779062 49.42578125 472.14453125 C45.50177102 474.84168903 41.570428 477.52785256 37.63378906 480.20654297 C35.77223232 481.47415474 33.91236848 482.74425432 32.05371094 484.01611328 C8.10390812 500.37714846 8.10390812 500.37714846 -3 505 C-4.22009766 505.52980469 -4.22009766 505.52980469 -5.46484375 506.0703125 C-14.58294693 509.4383972 -26.6398442 509.70040332 -35.75 506.25 C-44.30742998 502.06508483 -49.93034286 495.48800979 -53.30078125 486.55078125 C-56.95624884 474.25511753 -57.14640848 462.38090502 -57.13371277 449.68745422 C-57.13558243 447.91599978 -57.13788375 446.14454574 -57.14057809 444.37309235 C-57.14668334 439.51777363 -57.146564 434.66247216 -57.14538372 429.80715048 C-57.14517939 424.56568044 -57.15070156 419.32421589 -57.15544128 414.08274841 C-57.16374148 403.81821936 -57.16649584 393.55369605 -57.16705366 383.28916392 C-57.16752914 374.94376885 -57.16958545 366.59837566 -57.17275429 358.25298119 C-57.18155925 334.58193563 -57.18617393 310.9108946 -57.18542381 287.2398474 C-57.18538386 285.96420606 -57.1853439 284.68856472 -57.18530273 283.37426758 C-57.18526185 282.09706509 -57.18522097 280.81986259 -57.18517885 279.503957 C-57.18477246 258.80816155 -57.19434074 238.11238431 -57.2084411 217.41659413 C-57.22281161 196.156187 -57.22971091 174.89578874 -57.22884732 153.63537663 C-57.22851558 141.70337002 -57.23125272 129.77138249 -57.24202538 117.83938026 C-57.25113926 107.67970847 -57.25329833 97.5200644 -57.24651595 87.36039028 C-57.24325521 82.17996728 -57.24317798 76.99959745 -57.2518692 71.81917953 C-57.25975481 67.06997156 -57.25828177 62.32085874 -57.24958507 57.57165303 C-57.24805461 55.86037834 -57.24984897 54.14909647 -57.25544515 52.43783025 C-57.30448098 36.36927485 -56.9924141 20.42730645 -47 7 C-46.46375 6.154375 -45.9275 5.30875 -45.375 4.4375 C-33.95672727 -7.28125359 -13.85885739 -6.39639572 0 0 Z " fill="#000000" transform="translate(120,4)"/>
</svg>
