<svg version="1.1" id="Layer_1" xmlns="http://www.w3.org/2000/svg" xmlns:xlink="http://www.w3.org/1999/xlink" x="0px" y="0px"
	 width="100%" viewBox="0 0 512 512" enable-background="new 0 0 512 512" xml:space="preserve">
<path fill="#000000" opacity="1.000000" stroke="none" 
	d="
M513.000000,170.000000 
	C513.000000,284.223816 513.000000,398.447632 513.000000,513.000000 
	C475.313080,513.000000 437.625183,513.000000 399.796692,512.748901 
	C400.944519,512.222717 402.222900,511.774536 403.522980,511.698975 
	C420.540192,510.709747 436.093658,505.228973 448.612762,493.796722 
	C466.305359,477.640137 483.300507,460.634369 498.984802,442.523499 
	C516.646179,422.129669 515.861572,394.985504 497.126160,375.509155 
	C474.378632,351.862091 451.153992,328.648499 427.503601,305.904785 
	C413.003571,291.960663 395.481110,288.195038 376.201294,295.325989 
	C367.887543,298.400970 361.240234,303.984894 355.044952,310.082581 
	C343.765503,321.184387 332.576843,332.380371 321.484314,343.668762 
	C319.106323,346.088715 317.092438,346.484711 314.078125,344.855316 
	C306.313904,340.658356 298.419769,336.711823 291.023712,331.855316 
	C260.292603,311.676086 233.650650,286.924561 209.628342,259.227722 
	C194.079910,241.300919 180.031326,222.375626 169.507217,200.959488 
	C167.367477,196.605209 167.762604,193.951996 171.321960,190.647644 
	C184.626373,178.296402 197.787384,165.753601 209.666550,152.005249 
	C227.284698,131.614929 227.316696,106.316505 209.104218,86.402977 
	C187.404404,62.676411 164.143295,40.443928 141.216187,17.907478 
	C133.757812,10.576194 125.128098,4.978982 114.695236,2.659231 
	C112.765114,2.230069 110.681480,2.293814 109.000000,1.000000 
	C171.687561,1.000000 234.375122,1.000000 297.221497,1.133023 
	C295.983337,2.095698 294.019684,1.445192 292.740570,3.090812 
	C294.371552,5.777894 296.081329,8.648441 295.055573,11.898277 
	C293.625519,16.429016 295.916138,18.840528 299.438324,20.734518 
	C304.718079,23.573620 309.858154,26.752104 315.350586,29.101311 
	C331.667816,36.080498 334.286163,53.341633 329.933105,67.740135 
	C327.291016,76.479240 322.765411,84.930252 317.677094,92.793541 
	C313.419220,99.373489 313.180420,112.733292 317.899536,118.945580 
	C324.034576,127.021881 330.618958,134.580887 339.072144,140.657196 
	C347.650635,146.823593 356.629395,151.907059 366.088715,156.510025 
	C384.663940,165.548920 403.260773,174.364624 423.662994,178.582962 
	C436.127075,181.160019 448.576233,179.307236 461.012756,178.455139 
	C470.799896,177.784576 480.529327,176.022919 490.379303,177.915939 
	C494.078827,178.626953 497.529205,177.630936 500.958374,175.899414 
	C504.942688,173.887604 508.381348,170.711395 513.000000,170.000000 
z"/>
<path fill="#000000" opacity="1.000000" stroke="none" 
	d="
M388.000000,513.000000 
	C259.056183,513.000000 130.112335,513.000000 1.084252,513.000000 
	C1.084252,342.333344 1.084252,171.666687 1.084252,1.000000 
	C33.427574,1.000000 65.746803,1.000000 98.236862,1.248357 
	C83.321342,4.219341 71.621490,12.583128 61.194057,23.352991 
	C50.764942,34.124599 40.089088,44.662437 29.357414,55.134705 
	C15.703704,68.458374 6.770933,84.164673 3.724551,103.170479 
	C1.319849,118.172989 2.474919,133.028641 4.943251,147.838638 
	C9.974043,178.023346 21.433918,206.044525 34.573177,233.407135 
	C48.976982,263.403137 67.053879,291.161682 87.175331,317.622162 
	C111.463425,349.561951 138.500366,378.960205 168.913712,405.138367 
	C209.847794,440.372223 255.012131,469.012177 304.574219,490.575684 
	C324.929688,499.431915 345.916504,506.260590 367.904205,509.950592 
	C374.593262,511.073181 381.524872,510.567993 388.000000,513.000000 
z"/>
<path fill="#000000" opacity="1.000000" stroke="none" 
	d="
M181.723053,265.287567 
	C210.445740,300.326569 242.774994,330.880676 280.707672,355.238892 
	C289.966003,361.184052 299.789398,366.174408 309.663605,370.988678 
	C318.859955,375.472412 327.183624,373.232697 334.290039,366.219727 
	C346.741180,353.932434 359.100555,341.552094 371.515106,329.227570 
	C373.287445,327.468048 375.083740,325.720703 376.987213,324.107300 
	C387.822327,314.923157 400.631073,314.763550 410.723145,324.632629 
	C432.996887,346.414154 455.144623,368.337341 476.852081,390.680389 
	C489.994690,404.207794 489.886902,416.896179 476.999542,430.727631 
	C463.716278,444.983978 450.172546,459.033844 436.125305,472.531433 
	C423.545410,484.619141 407.799194,488.664154 390.567139,487.685486 
	C352.244110,485.508972 317.858704,471.020966 284.428070,453.690948 
	C211.816696,416.050354 152.188324,363.347717 103.578316,297.786652 
	C77.729317,262.923737 55.997971,225.836182 41.104450,184.975021 
	C33.273998,163.491791 27.126471,141.639297 27.533733,118.369446 
	C27.827711,101.572250 33.127796,87.030724 44.913612,75.053078 
	C57.768936,61.988522 70.675491,48.968159 83.816742,36.192913 
	C96.853752,23.518995 110.155708,23.046041 122.970451,35.549351 
	C145.269730,57.306694 167.258011,79.394569 188.950745,101.757034 
	C200.405899,113.565857 200.176987,126.299232 188.821808,138.047821 
	C176.202850,151.104004 163.271393,163.870117 150.173721,176.447754 
	C140.369354,185.862885 138.716507,193.571915 144.252197,206.025986 
	C153.804428,227.516312 166.887146,246.736603 181.723053,265.287567 
z"/>
</svg>