<svg version="1.1" id="Layer_1" xmlns="http://www.w3.org/2000/svg" xmlns:xlink="http://www.w3.org/1999/xlink" x="0px" y="0px"
	 width="100%" viewBox="0 0 512 512" enable-background="new 0 0 512 512" xml:space="preserve">
<path fill="#FFFFFF" opacity="1.000000" stroke="none" 
	d="
M1.000000,495.000000 
	C1.000000,330.414429 1.000000,165.828842 1.000000,1.000000 
	C130.021912,1.000000 259.043976,1.000000 388.447388,1.350419 
	C385.798096,3.917881 384.908478,6.789299 384.911072,10.613111 
	C385.015442,163.407043 384.999969,316.201080 385.000031,468.995087 
	C385.000031,476.730103 387.341766,478.999268 395.333984,478.999603 
	C422.826904,479.000671 450.319824,479.000763 477.812744,478.999542 
	C484.882751,478.999207 487.995789,475.852112 487.996033,468.621246 
	C488.001282,316.160492 487.991699,163.699738 488.041779,11.238986 
	C488.043213,6.849895 486.348785,3.591555 483.000000,1.000000 
	C492.991730,1.000000 502.983429,1.000000 513.000000,1.000000 
	C513.000000,165.355347 513.000000,329.710693 512.531372,494.533020 
	C341.708466,495.000000 171.354233,495.000000 1.000000,495.000000 
M249.000000,180.500000 
	C249.000000,158.167419 249.005096,135.834839 248.996979,113.502266 
	C248.994431,106.487175 245.501358,103.004555 238.467194,103.002815 
	C210.801025,102.995956 183.134872,102.995697 155.468704,103.003128 
	C148.862152,103.004898 146.003174,105.864998 146.002945,112.478287 
	C145.998901,231.476135 145.998962,350.473999 146.002686,469.471832 
	C146.002899,476.320007 148.650131,478.994476 155.436539,478.996521 
	C182.769379,479.004883 210.102203,479.000031 237.435043,479.000000 
	C246.366653,479.000000 248.999710,476.382172 248.999741,467.494812 
	C249.000153,372.163208 249.000000,276.831604 249.000000,180.500000 
M368.000000,369.500000 
	C368.000000,318.008820 367.850525,266.516632 368.201447,215.027817 
	C368.242310,209.030014 363.058746,205.011734 358.104462,205.008530 
	C330.775818,204.990814 303.443420,204.752686 276.121063,205.167267 
	C268.947052,205.276123 265.050507,207.164948 265.043457,215.544983 
	C264.972229,300.197052 264.992584,384.849243 265.015656,469.501373 
	C265.017334,475.588562 268.540833,478.996582 274.569153,478.997681 
	C302.397705,479.002869 330.226257,479.001709 358.054810,478.998840 
	C365.515442,478.998077 367.998566,476.496155 367.999054,468.983093 
	C368.001221,436.155396 368.000000,403.327698 368.000000,369.500000 
M127.673904,475.878143 
	C128.115936,474.042542 128.941589,472.207428 128.944107,470.371216 
	C129.013809,419.399323 129.002686,368.427246 128.996765,317.455231 
	C128.995972,310.656433 126.328621,308.004852 119.499031,308.003052 
	C92.014114,307.995728 64.529198,307.999939 37.044285,308.000061 
	C28.884153,308.000092 26.001583,310.869415 26.001041,319.015839 
	C25.998638,355.162659 25.999996,391.309479 26.000000,427.456299 
	C26.000000,441.448639 25.968538,455.441040 26.014671,469.433228 
	C26.034632,475.487732 29.574081,478.996063 35.495029,478.997345 
	C63.479671,479.003326 91.464737,479.065887 119.448257,478.888550 
	C121.983986,478.872528 124.509781,477.291107 127.673904,475.878143 
z"/>
<path fill="#000000" opacity="1.000000" stroke="none" 
	d="
M482.531342,1.000000 
	C486.348785,3.591555 488.043213,6.849895 488.041779,11.238986 
	C487.991699,163.699738 488.001282,316.160492 487.996033,468.621246 
	C487.995789,475.852112 484.882751,478.999207 477.812744,478.999542 
	C450.319824,479.000763 422.826904,479.000671 395.333984,478.999603 
	C387.341766,478.999268 385.000031,476.730103 385.000031,468.995087 
	C384.999969,316.201080 385.015442,163.407043 384.911072,10.613111 
	C384.908478,6.789299 385.798096,3.917881 388.914368,1.350419 
	C420.020905,1.000000 451.041779,1.000000 482.531342,1.000000 
M449.499847,461.000000 
	C456.266083,461.000000 463.032318,461.000000 469.714691,461.000000 
	C469.714691,313.355957 469.714691,166.289215 469.714691,19.288559 
	C447.356567,19.288559 425.284912,19.288559 403.285278,19.288559 
	C403.285278,166.644043 403.285278,313.710785 403.285278,461.000000 
	C418.546295,461.000000 433.523071,461.000000 449.499847,461.000000 
z"/>
<path fill="#000000" opacity="1.000000" stroke="none" 
	d="
M1.000000,495.469727 
	C171.354233,495.000000 341.708466,495.000000 512.531372,495.000000 
	C513.000000,500.995178 513.000000,506.990356 513.000000,512.962891 
	C342.333344,512.962891 171.666656,512.962891 1.000000,512.962891 
	C1.000000,507.263672 1.000000,501.601532 1.000000,495.469727 
z"/>
<path fill="#000000" opacity="1.000000" stroke="none" 
	d="
M249.000000,181.000000 
	C249.000000,276.831604 249.000153,372.163208 248.999741,467.494812 
	C248.999710,476.382172 246.366653,479.000000 237.435043,479.000000 
	C210.102203,479.000031 182.769379,479.004883 155.436539,478.996521 
	C148.650131,478.994476 146.002899,476.320007 146.002686,469.471832 
	C145.998962,350.473999 145.998901,231.476135 146.002945,112.478287 
	C146.003174,105.864998 148.862152,103.004898 155.468704,103.003128 
	C183.134872,102.995697 210.801025,102.995956 238.467194,103.002815 
	C245.501358,103.004555 248.994431,106.487175 248.996979,113.502266 
	C249.005096,135.834839 249.000000,158.167419 249.000000,181.000000 
M164.000000,303.500000 
	C164.000000,355.926544 164.000000,408.353058 164.000000,460.711517 
	C186.643677,460.711517 208.715103,460.711517 230.714478,460.711517 
	C230.714478,347.355835 230.714478,234.288849 230.714478,121.288490 
	C208.356323,121.288490 186.284882,121.288490 164.000000,121.288490 
	C164.000000,181.884476 164.000000,242.192245 164.000000,303.500000 
z"/>
<path fill="#000000" opacity="1.000000" stroke="none" 
	d="
M368.000000,370.000000 
	C368.000000,403.327698 368.001221,436.155396 367.999054,468.983093 
	C367.998566,476.496155 365.515442,478.998077 358.054810,478.998840 
	C330.226257,479.001709 302.397705,479.002869 274.569153,478.997681 
	C268.540833,478.996582 265.017334,475.588562 265.015656,469.501373 
	C264.992584,384.849243 264.972229,300.197052 265.043457,215.544983 
	C265.050507,207.164948 268.947052,205.276123 276.121063,205.167267 
	C303.443420,204.752686 330.775818,204.990814 358.104462,205.008530 
	C363.058746,205.011734 368.242310,209.030014 368.201447,215.027817 
	C367.850525,266.516632 368.000000,318.008820 368.000000,370.000000 
M350.000000,399.500000 
	C350.000000,340.741333 350.000000,281.982666 350.000000,223.286316 
	C327.360046,223.286316 305.288971,223.286316 283.283813,223.286316 
	C283.283813,302.640289 283.283813,381.707642 283.283813,460.713684 
	C305.639923,460.713684 327.710999,460.713684 350.000000,460.713684 
	C350.000000,440.452118 350.000000,420.476074 350.000000,399.500000 
z"/>
<path fill="#000000" opacity="1.000000" stroke="none" 
	d="
M127.357048,476.157410 
	C124.509781,477.291107 121.983986,478.872528 119.448257,478.888550 
	C91.464737,479.065887 63.479671,479.003326 35.495029,478.997345 
	C29.574081,478.996063 26.034632,475.487732 26.014671,469.433228 
	C25.968538,455.441040 26.000000,441.448639 26.000000,427.456299 
	C25.999996,391.309479 25.998638,355.162659 26.001041,319.015839 
	C26.001583,310.869415 28.884153,308.000092 37.044285,308.000061 
	C64.529198,307.999939 92.014114,307.995728 119.499031,308.003052 
	C126.328621,308.004852 128.995972,310.656433 128.996765,317.455231 
	C129.002686,368.427246 129.013809,419.399323 128.944107,470.371216 
	C128.941589,472.207428 128.115936,474.042542 127.357048,476.157410 
M66.500046,461.000000 
	C81.262672,461.000000 96.025299,461.000000 110.714485,461.000000 
	C110.714485,415.690613 110.714485,370.955811 110.714485,326.287018 
	C88.357338,326.287018 66.286880,326.287018 44.285522,326.287018 
	C44.285522,371.309418 44.285522,416.044220 44.285522,461.000000 
	C51.546394,461.000000 58.523258,461.000000 66.500046,461.000000 
z"/>
<path fill="#FFFFFF" opacity="1.000000" stroke="none" 
	d="
M448.999878,461.000000 
	C433.523071,461.000000 418.546295,461.000000 403.285278,461.000000 
	C403.285278,313.710785 403.285278,166.644043 403.285278,19.288559 
	C425.284912,19.288559 447.356567,19.288559 469.714691,19.288559 
	C469.714691,166.289215 469.714691,313.355957 469.714691,461.000000 
	C463.032318,461.000000 456.266083,461.000000 448.999878,461.000000 
z"/>
<path fill="#FFFFFF" opacity="1.000000" stroke="none" 
	d="
M164.000000,303.000000 
	C164.000000,242.192245 164.000000,181.884476 164.000000,121.288490 
	C186.284882,121.288490 208.356323,121.288490 230.714478,121.288490 
	C230.714478,234.288849 230.714478,347.355835 230.714478,460.711517 
	C208.715103,460.711517 186.643677,460.711517 164.000000,460.711517 
	C164.000000,408.353058 164.000000,355.926544 164.000000,303.000000 
z"/>
<path fill="#FFFFFF" opacity="1.000000" stroke="none" 
	d="
M350.000000,400.000000 
	C350.000000,420.476074 350.000000,440.452118 350.000000,460.713684 
	C327.710999,460.713684 305.639923,460.713684 283.283813,460.713684 
	C283.283813,381.707642 283.283813,302.640289 283.283813,223.286316 
	C305.288971,223.286316 327.360046,223.286316 350.000000,223.286316 
	C350.000000,281.982666 350.000000,340.741333 350.000000,400.000000 
z"/>
<path fill="#FFFFFF" opacity="1.000000" stroke="none" 
	d="
M66.000084,461.000000 
	C58.523258,461.000000 51.546394,461.000000 44.285522,461.000000 
	C44.285522,416.044220 44.285522,371.309418 44.285522,326.287018 
	C66.286880,326.287018 88.357338,326.287018 110.714485,326.287018 
	C110.714485,370.955811 110.714485,415.690613 110.714485,461.000000 
	C96.025299,461.000000 81.262672,461.000000 66.000084,461.000000 
z"/>
</svg>