<?xml version="1.0" encoding="UTF-8"?>
<svg version="1.1" xmlns="http://www.w3.org/2000/svg" width="512" height="512">
<path d="M0 0 C1.17276157 -0.00453111 2.34552314 -0.00906223 3.55382293 -0.01373065 C6.77791578 -0.02413113 10.00186677 -0.02571252 13.22597086 -0.02334189 C16.71560456 -0.02293108 20.2052059 -0.03399806 23.69482422 -0.04345703 C30.52068685 -0.06001206 37.34651492 -0.06556411 44.17239595 -0.06668179 C49.72690396 -0.06763504 55.28140065 -0.07175913 60.83590508 -0.07808304 C76.61694743 -0.09568178 92.39796269 -0.10492425 108.17901493 -0.10342209 C109.45297433 -0.10330222 109.45297433 -0.10330222 110.75267029 -0.10317993 C112.02820271 -0.10305729 112.02820271 -0.10305729 113.32950347 -0.10293217 C127.09685894 -0.10212004 140.86410481 -0.12124289 154.63142861 -0.14945666 C168.79996702 -0.17826125 182.96845212 -0.19199275 197.13702053 -0.19026911 C205.07852146 -0.18960774 213.01990753 -0.19498832 220.96138191 -0.21662521 C227.7253892 -0.23493723 234.48922959 -0.23910304 241.25325108 -0.22560637 C244.6966024 -0.21912626 248.13963449 -0.21877664 251.58295441 -0.23631287 C286.28572042 -0.38055897 315.02875252 8.44466002 340.55223083 32.51742554 C360.44042505 53.40187438 371.314417 80.29493506 371.15788269 109.1038208 C371.15308985 110.4129188 371.14829702 111.72201681 371.14335895 113.07078445 C371.02368669 127.0892728 369.66654562 140.95332566 368.17430115 154.88510132 C367.88223357 157.70402528 367.59479115 160.5234169 367.30708313 163.3427887 C366.61263442 170.12062079 365.9020826 176.8966644 365.18547109 183.67218526 C364.34796576 191.59629522 363.52666784 199.52206236 362.7056776 207.44789742 C361.23894785 221.60198377 359.75722564 235.75445948 358.26707458 249.90609741 C356.82720368 263.58030797 355.3992186 277.25569374 353.98387146 290.9324646 C352.43415096 305.90751617 350.87848558 320.88192595 349.31207347 335.85524166 C349.22900911 336.649258 349.14594474 337.44327434 349.06036328 338.26135179 C348.89362879 339.85516308 348.72688204 341.44897309 348.56012286 343.04278181 C347.9848426 348.54425709 347.41347966 354.04613089 346.84352875 359.54816055 C346.1478919 366.26154438 345.44508028 372.9741352 344.73364261 379.68586357 C344.37203495 383.09863473 344.01322084 386.51162842 343.66281509 389.92556953 C340.43524564 421.23065225 336.13938208 449.80359507 314.86473083 474.26742554 C314.1544574 475.11047241 313.44418396 475.95351929 312.71238708 476.82211304 C295.90736675 496.25568664 271.26352564 508.77401769 245.86473083 512.26742554 C242.77911813 512.41282462 239.69720801 512.41526071 236.60856628 512.41459656 C235.22335183 512.42011159 235.22335183 512.42011159 233.81015325 512.42573804 C230.71994165 512.43673866 227.62976373 512.44061264 224.53953552 512.44442749 C222.3215779 512.45069511 220.10362133 512.45734218 217.88566589 512.46434021 C210.60265327 512.48535592 203.31964051 512.4957436 196.03660583 512.50570679 C193.52402485 512.50975595 191.01144398 512.51387292 188.49886322 512.51805687 C178.0399242 512.53492507 167.58098631 512.54955707 157.12203598 512.55680561 C154.41094206 512.55871519 151.69984816 512.56063556 148.98875427 512.56259155 C148.3150087 512.56307529 147.64126313 512.56355903 146.94710103 512.56405743 C136.05702618 512.57234015 125.1670618 512.59764786 114.27703509 512.63017223 C103.06929964 512.66336943 91.86160392 512.6809341 80.65381551 512.68444985 C74.37218677 512.68679171 68.09073258 512.69563873 61.8091507 512.72091103 C55.88949541 512.74434183 49.97012772 512.748365 44.05043793 512.73814964 C41.89070677 512.73765773 39.73096073 512.74387513 37.5712738 512.75770569 C9.47833852 512.92738348 -16.3858363 505.83012831 -38.13526917 487.26742554 C-38.92159729 486.62547241 -39.70792542 485.98351929 -40.51808167 485.32211304 C-54.81904282 473.17302065 -65.46802706 456.98825786 -71.51026917 439.26742554 C-71.73690247 438.60516968 -71.96353577 437.94291382 -72.19703674 437.2605896 C-77.17182377 421.50740917 -78.32784821 404.75279915 -80.01975572 388.41722298 C-80.38106952 384.94264696 -80.74997256 381.46887468 -81.11776733 377.99497986 C-81.91802587 370.42257402 -82.70861801 362.84917835 -83.49732375 355.27556181 C-83.99168785 350.52918343 -84.48828724 345.7830406 -84.9853611 341.03694534 C-86.3665535 327.84671355 -87.74581386 314.65628456 -89.11620617 301.46492577 C-89.24734063 300.20262949 -89.24734063 300.20262949 -89.38112428 298.91483227 C-89.55827382 297.20949144 -89.73542082 295.50415034 -89.91256531 293.79880898 C-90.00047897 292.95249541 -90.08839263 292.10618184 -90.17897034 291.23422241 C-90.26699228 290.38685208 -90.35501421 289.53948175 -90.44570348 288.66643353 C-91.86906792 274.96770713 -93.30713991 261.27056974 -94.75183793 247.57407837 C-96.24173775 233.44722788 -97.71985205 219.31918454 -99.18629152 205.18987906 C-100.00716443 197.28309044 -100.83267732 189.37685486 -101.67108727 181.47190475 C-102.38555114 174.73486701 -103.08889834 167.99677451 -103.77890249 161.25718604 C-104.12969585 157.83379374 -104.48669564 154.41139306 -104.85438156 150.98975182 C-106.35586146 136.98697261 -107.37303284 123.11254377 -107.40597534 109.03344727 C-107.40942748 107.80016013 -107.41287962 106.56687299 -107.41643637 105.29621351 C-107.19616454 76.77302431 -94.26114977 51.08911236 -74.88526917 30.57992554 C-54.59493121 11.25750123 -28.08137504 -0.08081006 0 0 Z M-32.57276917 39.14242554 C-33.2417926 39.48974731 -33.91081604 39.83706909 -34.60011292 40.19491577 C-39.49077221 42.78889949 -43.92893971 45.65515628 -48.13526917 49.26742554 C-48.7733551 49.7637146 -49.41144104 50.26000366 -50.06886292 50.77133179 C-64.01807323 62.05578068 -73.69374249 80.54384275 -76.13526917 98.26742554 C-76.38317252 102.00047788 -76.41288426 105.7188994 -76.40206909 109.45939636 C-76.39927706 110.54811848 -76.39648503 111.63684059 -76.39360839 112.75855428 C-76.25322121 125.3496847 -74.98631198 137.80184174 -73.64295661 150.31222045 C-73.27148707 153.79917507 -72.91524605 157.28769464 -72.55688477 160.77601624 C-71.85668389 167.56900661 -71.14295854 174.36050655 -70.4242477 181.15156081 C-69.58526954 189.08367524 -68.75982847 197.01718216 -67.93470529 204.95074771 C-66.46138165 219.11204283 -64.97554264 233.2719963 -63.48268127 247.4312439 C-62.03812919 261.13236208 -60.60333652 274.83445763 -59.17897034 288.53768921 C-57.37264576 305.91538651 -55.55753756 323.29214467 -53.73535755 340.66818648 C-53.15724309 346.18350821 -52.58224666 351.69914984 -52.00833702 357.21491051 C-51.30860457 363.93830735 -50.60314697 370.66107638 -49.89067956 377.38313606 C-49.52807644 380.80534067 -49.16777834 384.22774206 -48.81414795 387.65088654 C-45.66146408 418.06127694 -40.85575356 444.73762301 -16.13526917 465.26742554 C-8.47275519 470.83848038 -0.1383957 475.2874433 8.86473083 478.26742554 C9.94351753 478.64060913 9.94351753 478.64060913 11.0440979 479.02133179 C21.48894754 482.15354516 32.02801434 481.64495148 42.81785583 481.56039429 C44.93062538 481.55478947 47.04339885 481.55052357 49.15617371 481.54753113 C54.67992681 481.53615206 60.20343809 481.50674549 65.72709656 481.47341919 C71.37841014 481.44256774 77.02976332 481.42899375 82.68113708 481.41390991 C93.74244045 481.38186841 104.80356542 481.33075721 115.86473083 481.26742554 C115.87059708 480.15988419 115.87646332 479.05234283 115.88250732 477.91123962 C115.9398322 467.45072324 116.01264478 456.99041279 116.10044575 446.53010654 C116.14508729 441.15292943 116.18435715 435.77582699 116.21116638 430.39852905 C116.2372613 425.20476399 116.27770754 420.01128728 116.3279171 414.81770134 C116.34454399 412.84071387 116.35608419 410.86367658 116.36234474 408.8866291 C116.37203137 406.10773943 116.40014476 403.32958055 116.43235779 400.5508728 C116.4309227 399.74166382 116.42948761 398.93245483 116.42800903 398.09872437 C116.51931577 392.49392095 117.43928669 387.36622495 119.86473083 382.26742554 C123.65371298 378.65887112 127.4368797 377.46627646 132.55223083 377.10336304 C136.56703891 377.38819739 139.66284679 378.87919673 142.86473083 381.26742554 C147.31330237 386.86401554 147.02235625 393.27148898 147.0700531 400.09677124 C147.0799527 400.97532272 147.08985229 401.85387421 147.10005188 402.75904846 C147.13155884 405.65374079 147.15638151 408.54844951 147.18113708 411.44320679 C147.20171594 413.45388711 147.22271266 415.4645632 147.24411011 417.47523499 C147.29923452 422.76056482 147.34868621 428.04593307 147.3969574 433.33132935 C147.44724282 438.72738046 147.5028921 444.12337596 147.55809021 449.51937866 C147.66555396 460.10201341 147.76702501 470.68469651 147.86473083 481.26742554 C159.99206534 481.36054016 172.11931332 481.43139964 184.24693394 481.47467422 C189.8796721 481.49545495 195.51216377 481.5235969 201.14476013 481.56918335 C206.59129155 481.61298274 212.03758745 481.63663399 217.48428154 481.64693451 C219.55128112 481.65426515 221.61826936 481.66857819 223.68516731 481.69034576 C238.91357453 481.84419127 252.52736845 480.76794085 266.23973083 473.45492554 C266.90762634 473.10800659 267.57552185 472.76108765 268.26365662 472.40365601 C273.61117845 469.5536389 278.37617386 466.35794066 282.86473083 462.26742554 C283.67168396 461.55199585 284.47863708 460.83656616 285.31004333 460.09945679 C298.72060307 447.52962021 306.78820608 431.60978512 309.34112549 413.46180725 C309.4650866 412.6059455 309.58904771 411.75008375 309.71676522 410.86828679 C311.40342078 398.87581165 312.61235242 386.82581849 313.86741638 374.78231812 C314.15274352 372.07111018 314.43936923 369.36003981 314.72587585 366.6489563 C315.49712709 359.34135663 316.26174096 352.03307228 317.02485633 344.72461915 C317.50311418 340.14449545 317.982755 335.56451721 318.46264076 330.98456383 C319.79641194 318.25298837 321.12858631 305.52124837 322.45451641 292.78885365 C322.53897178 291.97788158 322.62342714 291.16690951 322.71044176 290.33136253 C322.881572 288.68806374 323.05270221 287.04476496 323.22383239 285.40146617 C323.30875905 284.58597055 323.39368572 283.77047494 323.48118591 282.93026733 C323.56621724 282.1137536 323.65124856 281.29723987 323.73885659 280.4559833 C325.11621402 267.23292218 326.50530405 254.01112233 327.89949419 240.78982643 C329.3376809 227.1497051 330.76604769 213.50858386 332.18478614 199.86642569 C332.97882879 192.2332869 333.77684785 184.60061449 334.58574486 176.96903419 C335.27439511 170.47146642 335.95388766 163.97301721 336.62219437 157.47332428 C336.96208719 154.17017428 337.30723257 150.86782291 337.66121864 147.56613731 C339.01964472 134.87247791 340.09078876 122.2875364 340.12188721 109.51307678 C340.12601152 107.98785832 340.12601152 107.98785832 340.13021916 106.43182737 C339.96971859 89.264695 333.0663813 72.31125725 321.86473083 59.26742554 C321.12029724 58.31029663 321.12029724 58.31029663 320.36082458 57.33383179 C313.33307564 48.64651804 304.38726145 42.70273145 294.42723083 37.89242554 C293.77254822 37.57080444 293.1178656 37.24918335 292.44334412 36.91781616 C282.32293884 32.27141801 271.73612029 30.81650533 260.69654846 30.87974548 C259.54446266 30.87435995 258.39237686 30.86897441 257.20537937 30.86342567 C253.38354742 30.84923286 249.56206608 30.85622847 245.74021912 30.8633728 C242.98434055 30.85930445 240.22847935 30.85079825 237.47261047 30.84257507 C230.78704144 30.82545347 224.10156667 30.82453319 217.41598143 30.82978798 C211.97733749 30.83384335 206.53872122 30.83236997 201.10007858 30.82703972 C200.32351893 30.8262913 199.54695927 30.82554287 198.7468675 30.82477177 C197.16885941 30.82324016 195.59085132 30.82170181 194.01284324 30.82015681 C179.24293685 30.80645579 164.47308355 30.81185255 149.70317839 30.82334202 C136.21844482 30.83327188 122.73384851 30.82033374 109.24913611 30.79640783 C95.37095557 30.77197111 81.49283885 30.76242017 67.61463726 30.76906055 C59.83591206 30.77254263 52.05729235 30.77038787 44.27858353 30.75280952 C37.65689425 30.73803018 31.03538477 30.73752644 24.41369881 30.75488044 C21.04152055 30.7633462 17.66992378 30.76345001 14.29772186 30.75022888 C-2.4827993 30.68948838 -17.46351442 31.04330241 -32.57276917 39.14242554 Z " fill="#000000" transform="translate(124.13526916503906,-0.267425537109375)"/>
<path d="M0 0 C1.12491348 -0.00101212 1.12491348 -0.00101212 2.27255249 -0.00204468 C29.93676987 0.03729025 56.01847266 5.278876 81.8125 15.25 C82.50118164 15.51506348 83.18986328 15.78012695 83.89941406 16.05322266 C101.44990498 22.94466358 117.87001603 32.80510656 132.8125 44.25 C133.71097656 44.93707031 134.60945313 45.62414062 135.53515625 46.33203125 C140.6709841 50.35655168 145.55141897 54.62672768 150.3671875 59.02734375 C152.71401662 61.16048395 155.10284586 63.23632073 157.5 65.3125 C161.65508198 69.00671901 165.29451619 72.95117491 168.8125 77.25 C169.38355469 77.91 169.95460938 78.57 170.54296875 79.25 C174.21929624 83.7209731 176.24137648 87.36164179 175.8125 93.25 C174.34757508 100.57462458 169.71822839 104.95263067 164.7109375 110.17578125 C162.08853144 112.91770024 159.68265329 115.78516926 157.3125 118.75 C153.67750611 123.26777813 149.8453971 127.52818516 145.8984375 131.76953125 C142.90808642 135.00211747 140.07463671 138.31705866 137.3125 141.75 C133.6768595 146.26858176 129.84413598 150.52983329 125.89624023 154.77172852 C122.92534372 157.9829905 120.11288923 161.27627815 117.375 164.6875 C113.53610482 169.4603661 109.45581433 173.93377808 105.26733398 178.39624023 C101.99547409 181.90378717 98.93048534 185.50121028 95.9375 189.25 C91.55408804 194.68574732 87.61485744 199.02812649 80.8125 201.25 C77.72082806 201.50726891 77.72082806 201.50726891 74.19084167 201.51742554 C73.5388457 201.52195665 72.88684972 201.52648776 72.21509629 201.53115618 C70.03810014 201.54378051 67.8613548 201.54218112 65.68432617 201.54052734 C64.12023091 201.54651387 62.5561386 201.5533197 60.99205017 201.56088257 C56.74812697 201.57853805 52.50428443 201.58323778 48.26032805 201.58451414 C45.60704382 201.58593666 42.95378003 201.59020818 40.30050087 201.59550858 C31.03878097 201.61400798 21.77711862 201.62217938 12.51538086 201.62060547 C3.89082184 201.61940438 -4.73348679 201.64050058 -13.35798246 201.6720928 C-20.76962388 201.69827184 -28.18118361 201.70897207 -35.59287089 201.70769465 C-40.01638289 201.70718546 -44.43967238 201.71284487 -48.8631382 201.73405075 C-53.02552314 201.75346044 -57.18747396 201.75353916 -61.3498745 201.73901749 C-62.87361665 201.7369316 -64.39738617 201.74161721 -65.92108154 201.7537384 C-75.64733344 201.8260726 -82.57636407 201.47216936 -90.05859375 194.62109375 C-91.32896484 193.16896484 -91.32896484 193.16896484 -92.625 191.6875 C-93.09035156 191.1615625 -93.55570312 190.635625 -94.03515625 190.09375 C-97.76924955 185.83933222 -101.32685692 181.44108496 -104.875 177.03125 C-107.82926364 173.47814914 -110.95663424 170.1097632 -114.10375977 166.72827148 C-117.07465628 163.5170095 -119.88711077 160.22372185 -122.625 156.8125 C-125.99096265 152.62762693 -129.51926017 148.66685602 -133.1875 144.75 C-137.64622195 139.98908666 -141.82547624 135.08532437 -145.91015625 129.99609375 C-148.40577019 126.98680284 -151.02526789 124.11072784 -153.6875 121.25 C-158.77302038 115.78106866 -163.52936972 110.08880488 -168.1875 104.25 C-168.90421875 103.37859375 -169.6209375 102.5071875 -170.359375 101.609375 C-173.46392643 97.60264623 -174.1875 94.42030483 -174.1875 89.375 C-173.31950252 84.26345927 -170.54691219 81.06214547 -167.1875 77.25 C-166.341875 76.28449219 -165.49625 75.31898438 -164.625 74.32421875 C-160.07920902 69.21771347 -155.42980691 64.32423243 -150.17578125 59.93359375 C-148.7852738 58.75616995 -147.43059993 57.53570219 -146.10546875 56.28515625 C-133.34635066 44.26506714 -118.53272684 34.62645565 -103.1875 26.25 C-102.54135742 25.89599121 -101.89521484 25.54198242 -101.22949219 25.17724609 C-70.09791811 8.34787411 -35.2788531 0.02865002 0 0 Z M-83.1875 51.25 C-82.63890643 55.39384069 -80.35526091 57.7099616 -77.6875 60.8125 C-73.22988177 66.01070354 -71.85983284 69.21313877 -71.98046875 75.96875 C-72.29113255 79.39191342 -73.17848959 81.46330813 -75.1875 84.25 C-79.81968918 87.77046378 -83.3022203 88.83700084 -89.10546875 88.58984375 C-91.93545033 88.1279143 -93.88942068 86.92133041 -96.1875 85.25 C-96.8475 85.25 -97.5075 85.25 -98.1875 85.25 C-98.41179687 84.71890625 -98.63609375 84.1878125 -98.8671875 83.640625 C-100.63545416 80.4389114 -102.94799081 77.76852896 -105.3125 75 C-105.78042969 74.44570312 -106.24835938 73.89140625 -106.73046875 73.3203125 C-107.87925328 71.96052674 -109.03289653 70.60484835 -110.1875 69.25 C-115.30176972 70.7881999 -118.65734357 73.95971511 -122.5625 77.4375 C-123.19671875 77.98986328 -123.8309375 78.54222656 -124.484375 79.11132812 C-128.89631662 82.98753398 -133.08208237 87.05174629 -137.1875 91.25 C-133.07651394 97.00667703 -128.55451154 102.20082033 -123.7578125 107.3984375 C-121.3257893 110.09657874 -119.02572126 112.85712267 -116.75 115.6875 C-113.09178985 120.22316443 -109.24007035 124.5070117 -105.27368164 128.76928711 C-101.49259442 132.85661006 -97.99060034 137.13043244 -94.5 141.46875 C-91.5520415 145.01426766 -88.43224611 148.37622808 -85.29101562 151.74975586 C-81.35025194 156.00803171 -77.68452366 160.43846854 -74.0625 164.97265625 C-73.44375 165.72417969 -72.825 166.47570312 -72.1875 167.25 C-71.78619873 167.78592773 -71.38489746 168.32185547 -70.97143555 168.87402344 C-68.29304204 170.939909 -66.10998989 170.58831434 -62.76953125 170.54296875 C-60.88911133 170.5284668 -60.88911133 170.5284668 -58.97070312 170.51367188 C-57.66037109 170.48853516 -56.35003906 170.46339844 -55 170.4375 C-53.66472837 170.42244967 -52.32944063 170.40876187 -50.99414062 170.39648438 C-47.72485424 170.36107694 -44.45637907 170.3116889 -41.1875 170.25 C-38.66956439 164.82717164 -36.15299766 159.40371049 -33.63726807 153.9798584 C-32.31767091 151.13614325 -30.99653318 148.29314737 -29.67529297 145.45019531 C-24.20016334 133.66151539 -24.20016334 133.66151539 -18.875 121.8046875 C-18.20380127 120.2889917 -18.20380127 120.2889917 -17.51904297 118.74267578 C-16.74238785 116.97720764 -15.97501521 115.20761165 -15.21923828 113.43310547 C-13.18770969 108.8226884 -11.15119876 105.53821312 -7.1875 102.25 C-2.00751432 100.52333811 3.60999878 100.34027123 8.6875 102.4375 C13.64278348 106.66406532 16.16771495 111.67933127 18.7890625 117.49609375 C19.15640503 118.2962793 19.52374756 119.09646484 19.90222168 119.92089844 C21.08735546 122.50675855 22.26253369 125.09700637 23.4375 127.6875 C24.24662606 129.4580412 25.05636058 131.22830446 25.86669922 132.99829102 C27.83693718 137.30603764 29.79930197 141.61730813 31.75830078 145.93017578 C33.24174439 149.19457624 34.73031325 152.45662327 36.21875 155.71875 C38.42497007 160.55877264 40.62262425 165.40256146 42.8125 170.25 C59.48306543 172.47660875 59.48306543 172.47660875 74.8046875 167.96484375 C77.69655887 165.08414166 79.71517928 161.73471664 81.8125 158.25 C83.28379404 156.39355045 84.7833533 154.55909411 86.3125 152.75 C87.034375 151.8528125 87.75625 150.955625 88.5 150.03125 C91.45360477 146.47894156 94.58032323 143.11137228 97.7265625 139.73046875 C100.71691358 136.49788253 103.55036329 133.18294134 106.3125 129.75 C109.51182154 125.77370037 112.83839136 121.98336152 116.3125 118.25 C120.63026783 113.60868044 124.68668997 108.81440848 128.6640625 103.875 C131.92491482 99.89083135 135.35593471 96.06446578 138.8125 92.25 C131.66270045 83.36106002 123.1270809 75.81557852 113.8125 69.25 C109.80177833 70.80105712 107.78265622 73.37970639 105.125 76.6875 C104.33738281 77.65558594 103.54976562 78.62367188 102.73828125 79.62109375 C100.672797 82.15991175 100.672797 82.15991175 99.8125 85.25 C97.375 86.375 97.375 86.375 94.8125 87.25 C93.8225 87.745 93.8225 87.745 92.8125 88.25 C86.30154129 89.05889711 82.0837159 88.15069977 76.8125 84.25 C73.38533405 80.49117283 73.29509881 76.62555009 73.46875 71.734375 C74.38472792 65.11435274 78.99884379 60.69291618 83.421875 56.046875 C85.11851724 54.23327364 85.11851724 54.23327364 84.8125 51.25 C64.32535312 40.52135484 40.19260255 31.83710636 16.8125 32.25 C16.77511719 33.44496094 16.73773438 34.63992187 16.69921875 35.87109375 C15.92413067 56.13836933 15.92413067 56.13836933 10.3125 61.75 C5.91685645 64.38738613 1.83873324 64.765022 -3.1875 64.25 C-8.37049836 62.45588518 -10.59821712 60.0449683 -13.1875 55.25 C-14.45044576 50.57018044 -14.51806725 45.7548573 -14.75 40.9375 C-14.79318359 40.10154297 -14.83636719 39.26558594 -14.88085938 38.40429688 C-14.98635307 36.35303065 -15.08737315 34.3015352 -15.1875 32.25 C-38.48243681 31.60885495 -62.73356301 40.76080154 -83.1875 51.25 Z M-0.1875 154.25 C-1.35647285 156.72810316 -2.52277544 159.20740119 -3.6875 161.6875 C-4.02136719 162.39455078 -4.35523438 163.10160156 -4.69921875 163.83007812 C-6.4232643 166.91686221 -6.4232643 166.91686221 -7.1875 170.25 C-1.9075 170.25 3.3725 170.25 8.8125 170.25 C7.636875 167.40375 7.636875 167.40375 6.4375 164.5 C5.99664062 163.43265625 5.55578125 162.3653125 5.1015625 161.265625 C4.07942415 158.87444074 3.01036405 156.55616817 1.8125 154.25 C1.1525 154.25 0.4925 154.25 -0.1875 154.25 Z " fill="#000000" transform="translate(255.1875,62.75)"/>
</svg>
