<?xml version="1.0" encoding="UTF-8"?>
<svg version="1.1" xmlns="http://www.w3.org/2000/svg" width="512" height="512">
<path d="M0 0 C1.01790619 0.00215515 2.03581238 0.0043103 3.08456421 0.00653076 C17.69363523 0.05620146 32.02575853 0.30709809 46.375 3.3125 C47.34985352 3.51117676 48.32470703 3.70985352 49.32910156 3.91455078 C88.47564494 12.10330594 124.69815091 27.79453981 156.375 52.3125 C157.261875 52.98667969 158.14875 53.66085938 159.0625 54.35546875 C174.64607275 66.46770077 189.25647311 80.753451 201.375 96.3125 C202.52162109 97.71628906 202.52162109 97.71628906 203.69140625 99.1484375 C238.32002637 142.39252491 256.81365997 197.89189907 256.69067383 253.03979492 C256.6875221 255.97938487 256.71104926 258.9179558 256.73632812 261.85742188 C256.78098737 275.23056192 255.57551542 288.12666711 253.375 301.3125 C253.09281616 303.01805054 253.09281616 303.01805054 252.80493164 304.75805664 C245.77946967 343.86954746 228.79665906 381.05202178 204.375 412.3125 C203.61574219 413.28445313 202.85648437 414.25640625 202.07421875 415.2578125 C189.73986402 430.63741644 175.93895499 445.19015196 160.375 457.3125 C159.43914062 458.07691406 158.50328125 458.84132813 157.5390625 459.62890625 C125.58628299 485.2157721 86.41988322 501.72551276 46.375 509.3125 C45.56562988 509.47621094 44.75625977 509.63992188 43.92236328 509.80859375 C13.88110013 515.67977137 -20.7615176 514.58512909 -50.625 508.3125 C-52.14794678 507.99901611 -52.14794678 507.99901611 -53.70166016 507.67919922 C-90.84546555 499.78695344 -125.70945445 483.68345578 -155.625 460.3125 C-156.59695312 459.55324219 -157.56890625 458.79398437 -158.5703125 458.01171875 C-173.94991644 445.67736402 -188.50265196 431.87645499 -200.625 416.3125 C-201.77162109 414.90871094 -201.77162109 414.90871094 -202.94140625 413.4765625 C-228.5282721 381.52378299 -245.03801276 342.35738322 -252.625 302.3125 C-252.78871094 301.50312988 -252.95242187 300.69375977 -253.12109375 299.85986328 C-258.59069558 271.87335724 -258.46977511 238.21828161 -252.625 210.3125 C-252.42632324 209.33764648 -252.22764648 208.36279297 -252.02294922 207.35839844 C-243.85281954 168.30089461 -228.22714583 131.86349681 -203.625 100.3125 C-202.95210937 99.42820312 -202.27921875 98.54390625 -201.5859375 97.6328125 C-189.48489743 82.04587611 -175.18662021 67.42083932 -159.625 55.3125 C-158.18640625 54.14847656 -158.18640625 54.14847656 -156.71875 52.9609375 C-112.24221148 17.58187277 -56.46801745 -0.21501989 0 0 Z M-155.625 96.3125 C-156.12241699 96.78268555 -156.61983398 97.25287109 -157.13232422 97.73730469 C-165.13838763 105.33444934 -172.03249721 113.47194153 -178.625 122.3125 C-179.05022949 122.87163086 -179.47545898 123.43076172 -179.91357422 124.00683594 C-187.16970107 133.56450244 -193.10360829 143.66807576 -198.625 154.3125 C-199.01574707 155.06128418 -199.40649414 155.81006836 -199.80908203 156.58154297 C-215.67172991 187.3682599 -223.08020261 221.12664341 -223 255.625 C-222.99912384 256.54836151 -222.99824768 257.47172302 -222.99734497 258.42306519 C-222.81378459 317.25448491 -199.15704805 371.11475135 -158.625 413.3125 C-157.7690625 414.2096875 -156.913125 415.106875 -156.03125 416.03125 C-150.26417803 421.9443238 -144.1837581 427.29642238 -137.625 432.3125 C-136.98030762 432.8065332 -136.33561523 433.30056641 -135.67138672 433.80957031 C-124.83901324 442.03586549 -113.72845013 449.11374313 -101.625 455.3125 C-100.8820166 455.69889648 -100.1390332 456.08529297 -99.37353516 456.48339844 C-47.31468466 483.31692993 13.98450289 486.84888824 69.49414062 469.26123047 C102.96928428 458.23712808 132.08101384 439.60803934 157.375 415.3125 C158.72078125 414.02859375 158.72078125 414.02859375 160.09375 412.71875 C166.01226517 406.94637101 171.31283335 400.84514578 176.375 394.3125 C176.79894043 393.77028809 177.22288086 393.22807617 177.65966797 392.66943359 C208.01011115 353.60307944 223.86836364 305.74996348 223.75 256.4375 C223.74912384 255.5403125 223.74824768 254.643125 223.74734497 253.71875 C223.55922394 195.06143939 199.70451388 141.38198287 159.375 99.3125 C158.48039062 98.36503906 157.58578125 97.41757813 156.6640625 96.44140625 C149.75998731 89.30449568 142.30488392 83.24414885 134.375 77.3125 C133.81441895 76.88582031 133.25383789 76.45914063 132.67626953 76.01953125 C123.12016384 68.76526124 113.01727007 62.83277431 102.375 57.3125 C101.62621582 56.92175293 100.87743164 56.53100586 100.10595703 56.12841797 C16.70694409 13.15764006 -86.89826482 30.68228687 -155.625 96.3125 Z " fill="#000000" transform="translate(255.625,-0.3125)"/>
<path d="M0 0 C10.56 0 21.12 0 32 0 C31.55374268 4.15827393 31.10748535 8.31654785 30.64770508 12.60083008 C28.70137611 31.96901785 27.537556 51.36209563 26.8125 70.8125 C26.77892694 71.68310483 26.74535388 72.55370967 26.71076345 73.45069647 C25.05880502 117.6788047 26.6796204 154.70845417 57.84451395 188.39921385 C64.39679791 195.34173198 71.39250683 201.76759605 78.5625 208.0625 C79.1056839 208.54120057 79.64886781 209.01990113 80.20851183 209.51310778 C94.19731411 221.81459406 108.7380146 233.30657332 124 244 C123.04751485 245.11829227 122.09402133 246.23572573 121.1401062 247.35279846 C120.34380452 248.28634328 120.34380452 248.28634328 119.53141594 249.2387476 C117.66809708 251.38171525 115.71083508 253.40232519 113.6953125 255.40234375 C112.94765625 256.14677734 112.2 256.89121094 111.4296875 257.65820312 C110.66914063 258.41037109 109.90859375 259.16253906 109.125 259.9375 C108.34125 260.71673828 107.5575 261.49597656 106.75 262.29882812 C104.83561419 264.20154085 102.91891966 266.10186171 101 268 C100.03936142 267.14703339 99.07872284 266.29406677 98.088974 265.41525269 C94.59642288 262.42235162 90.9390163 259.77751091 87.16360664 257.15551949 C72.96068332 247.27644553 59.58409496 236.49637777 46.5625 225.125 C46.0086069 224.64331706 45.4547138 224.16163412 44.88403606 223.66535473 C15.55899383 198.06461494 -2.98051376 172.73527501 -5.77145678 133.00764668 C-6.86557362 114.69641129 -6.64599203 96.44291782 -5.875 78.125 C-5.83540964 77.16104718 -5.79581927 76.19709436 -5.7550292 75.20393085 C-4.70112926 50.03823912 -2.68170565 25.04300506 0 0 Z " fill="#000000" transform="translate(240,96)"/>
</svg>
