<?xml version="1.0" standalone="no"?>
<!DOCTYPE svg PUBLIC "-//W3C//DTD SVG 20010904//EN"
 "http://www.w3.org/TR/2001/REC-SVG-20010904/DTD/svg10.dtd">
<svg version="1.0" xmlns="http://www.w3.org/2000/svg"
 width="512.000000pt" height="512.000000pt" viewBox="0 0 512.000000 512.000000"
 preserveAspectRatio="xMidYMid meet">

<g transform="translate(0.000000,512.000000) scale(0.100000,-0.100000)"
fill="#000000" stroke="none">
<path d="M922 4620 c-106 -28 -187 -75 -267 -155 -81 -81 -127 -161 -155 -271
-20 -75 -20 -116 -20 -1634 0 -1518 0 -1559 20 -1634 28 -110 74 -190 155
-271 81 -81 161 -127 271 -155 75 -20 116 -20 1634 -20 1518 0 1559 0 1634 20
43 11 105 34 139 52 87 45 194 156 240 246 70 141 68 98 65 1259 -3 1034 -3
1042 -24 1069 -39 53 -71 69 -134 69 -63 0 -95 -16 -134 -69 -21 -27 -21 -36
-26 -1079 -5 -979 -6 -1054 -23 -1087 -29 -59 -72 -104 -123 -130 l-49 -25
-1545 -3 c-1746 -3 -1611 -9 -1699 77 -88 85 -81 -51 -81 1681 0 1731 -7 1596
81 1681 88 85 -45 79 1679 79 1727 0 1595 6 1680 -80 64 -63 80 -117 80 -267
0 -93 4 -121 20 -152 57 -113 223 -113 280 0 17 32 20 59 20 167 0 220 -47
349 -175 477 -81 82 -160 127 -271 155 -75 20 -115 20 -1638 19 -1504 0 -1564
-1 -1634 -19z"/>
<path d="M2480 3648 c-320 -30 -584 -268 -655 -592 -23 -104 -16 -271 15 -371
62 -201 207 -368 395 -460 112 -54 183 -69 325 -69 142 0 213 15 325 69 188
92 333 259 395 460 31 100 38 267 15 371 -85 385 -422 630 -815 592z m189
-329 c251 -57 394 -356 283 -592 -130 -279 -493 -342 -701 -122 -206 218 -140
566 131 690 89 41 179 48 287 24z"/>
<path d="M2296 2099 c-287 -37 -589 -144 -814 -288 -128 -82 -168 -146 -142
-227 24 -74 79 -114 158 -114 43 0 61 8 152 66 172 111 335 176 561 226 92 20
132 22 349 22 217 0 257 -2 349 -22 225 -49 413 -126 580 -236 73 -49 90 -56
133 -56 81 0 136 41 158 116 24 82 -14 143 -142 224 -225 145 -511 247 -797
285 -117 16 -434 18 -545 4z"/>
</g>
</svg>
