<?xml version="1.0" standalone="no"?>
<!DOCTYPE svg PUBLIC "-//W3C//DTD SVG 20010904//EN"
 "http://www.w3.org/TR/2001/REC-SVG-20010904/DTD/svg10.dtd">
<svg version="1.0" xmlns="http://www.w3.org/2000/svg"
 width="512.000000pt" height="512.000000pt" viewBox="0 0 512.000000 512.000000"
 preserveAspectRatio="xMidYMid meet">

<g transform="translate(0.000000,512.000000) scale(0.100000,-0.100000)"
fill="#000000" stroke="none">
<path d="M2395 5109 c-166 -24 -396 -119 -525 -218 -84 -63 -214 -199 -269
-279 -59 -87 -126 -231 -155 -333 -34 -120 -46 -218 -46 -380 l0 -139 -369 0
c-288 0 -371 -3 -379 -13 -7 -7 -69 -780 -152 -1866 -109 -1434 -138 -1856
-129 -1867 17 -21 4361 -21 4378 0 9 11 -20 433 -129 1867 -83 1086 -145 1859
-152 1866 -8 10 -91 13 -379 13 l-369 0 0 133 c0 162 -13 269 -46 384 -29 104
-96 248 -155 335 -61 89 -207 238 -294 297 -240 166 -548 241 -830 200z m295
-320 c182 -29 325 -104 460 -239 183 -183 250 -360 250 -657 l0 -133 -840 0
-840 0 0 133 c0 156 11 233 49 344 130 379 526 616 921 552z m-1288 -1598 c3
-230 5 -235 72 -285 39 -29 133 -29 172 0 67 50 69 55 72 285 2 162 6 209 16
209 20 0 118 -74 142 -107 94 -128 109 -288 40 -429 -43 -86 -103 -144 -194
-187 -61 -29 -76 -32 -162 -32 -86 0 -101 3 -160 31 -95 46 -153 101 -197 192
-36 73 -38 80 -38 176 0 89 3 108 27 158 15 32 39 73 53 92 27 36 120 105 142
106 9 0 13 -55 15 -209z m2000 0 c3 -230 5 -235 72 -285 39 -29 133 -29 172 0
67 50 69 55 72 285 2 162 6 209 16 209 20 0 118 -74 142 -107 94 -128 109
-288 40 -429 -43 -86 -103 -144 -194 -187 -61 -29 -76 -32 -162 -32 -86 0
-101 3 -160 31 -95 46 -153 101 -197 192 -36 73 -38 80 -38 176 0 89 3 108 27
158 15 32 39 73 53 92 27 36 120 105 142 106 9 0 13 -55 15 -209z"/>
</g>
</svg>
