<?xml version="1.0" encoding="UTF-8" standalone="no"?>
<!-- Created with Inkscape (http://www.inkscape.org/) -->

<svg
   xmlns:dc="http://purl.org/dc/elements/1.1/"
   xmlns:cc="http://creativecommons.org/ns#"
   xmlns:rdf="http://www.w3.org/1999/02/22-rdf-syntax-ns#"
   xmlns:svg="http://www.w3.org/2000/svg"
   xmlns="http://www.w3.org/2000/svg"
   xmlns:sodipodi="http://sodipodi.sourceforge.net/DTD/sodipodi-0.dtd"
   xmlns:inkscape="http://www.inkscape.org/namespaces/inkscape"
   width="47.770927mm"
   height="131.58749mm"
   viewBox="0 0 169.26707 466.2549"
   id="svg3356"
   version="1.1"
   inkscape:version="0.91 r13725"
   inkscape:export-filename="/home/algot/Documents/runeman.org/clipart/stretch.png"
   inkscape:export-xdpi="77.210983"
   inkscape:export-ydpi="77.210983"
   sodipodi:docname="stretch2.svg">
  <title
     id="title3392">Stretch</title>
  <defs
     id="defs3358" />
  <sodipodi:namedview
     id="base"
     pagecolor="#ffffff"
     bordercolor="#666666"
     borderopacity="1.0"
     inkscape:pageopacity="0.0"
     inkscape:pageshadow="2"
     inkscape:zoom="1"
     inkscape:cx="152.12307"
     inkscape:cy="219.37095"
     inkscape:document-units="px"
     inkscape:current-layer="layer1"
     showgrid="false"
     fit-margin-top="0"
     fit-margin-left="0"
     fit-margin-right="0"
     fit-margin-bottom="0"
     inkscape:window-width="1366"
     inkscape:window-height="712"
     inkscape:window-x="0"
     inkscape:window-y="0"
     inkscape:window-maximized="1" />
  <metadata
     id="metadata3361">
    <rdf:RDF>
      <cc:Work
         rdf:about="">
        <dc:format>image/svg+xml</dc:format>
        <dc:type
           rdf:resource="http://purl.org/dc/dcmitype/StillImage" />
        <dc:title>Stretch</dc:title>
        <dc:date>2016-07-17</dc:date>
        <dc:creator>
          <cc:Agent>
            <dc:title>Algot Runeman</dc:title>
          </cc:Agent>
        </dc:creator>
        <dc:rights>
          <cc:Agent>
            <dc:title>Algot Runeman</dc:title>
          </cc:Agent>
        </dc:rights>
        <dc:publisher>
          <cc:Agent>
            <dc:title>runeman.org</dc:title>
          </cc:Agent>
        </dc:publisher>
        <dc:identifier>stretch.svg</dc:identifier>
        <cc:license
           rdf:resource="http://creativecommons.org/publicdomain/zero/1.0/" />
        <dc:contributor>
          <cc:Agent>
            <dc:title>Glen Scott https://www.flickr.com/photos/glenscott/1578514678/sizes/l</dc:title>
          </cc:Agent>
        </dc:contributor>
      </cc:Work>
      <cc:License
         rdf:about="http://creativecommons.org/publicdomain/zero/1.0/">
        <cc:permits
           rdf:resource="http://creativecommons.org/ns#Reproduction" />
        <cc:permits
           rdf:resource="http://creativecommons.org/ns#Distribution" />
        <cc:permits
           rdf:resource="http://creativecommons.org/ns#DerivativeWorks" />
      </cc:License>
    </rdf:RDF>
  </metadata>
  <g
     inkscape:label="Layer 1"
     inkscape:groupmode="layer"
     id="layer1"
     transform="translate(-190.03929,-285.47823)">
    <g
       id="g3386">
      <path
         inkscape:connector-curvature="0"
         id="path3375"
         d="m 226,717.3622 4,-15 9,-16 7,-29 18,-34 9,-17 9,-18 13,32 11,29 9,52 10,22 22,-13 -2,-28 -4,-2 2,-25 -5,-20 0,-31 -4,-13 -4,-53 -11,-37 -36,8 -34,2 -14,-1 -10,54 3,17 -7,33 -9,49 -3,21 -8,19 1,13 z"
         style="fill:#000000;fill-rule:evenodd;stroke:#000000;stroke-width:1px;stroke-linecap:butt;stroke-linejoin:miter;stroke-opacity:1" />
      <path
         id="path3377"
         d="m 272,286.36133 -10,6 -22,4 -18,32 -9,22 2,37 11,47 -3,18 -13,50 22,11 41,2 63,-6 -5,-26 -6,-37 0,-29 11,-59 -14,-31 -1,0 -11,-17 -11,-10 -17,-9 -10,0 z m -26,20 16,0 14,6 11,-2 13,2 4,20 5,25 1,10 -3,0 -1,9 -5,11 -7,-3 2,-11 -12,-17 c 0,0 -4.72208,-5.39471 -8,-6 -4.77272,-0.88132 -14,4 -14,4 0,0 -13.37264,5.8729 -16,12 -2.24866,5.24396 2,17 2,17 0,0 -2.15946,-13.58139 -6,-19 -0.96376,-1.35976 -4,-3 -4,-3 l 5,-6 -1,-22 z"
         style="fill:#000000;fill-rule:evenodd;stroke:#000000;stroke-width:1px;stroke-linecap:butt;stroke-linejoin:miter;stroke-opacity:1"
         inkscape:connector-curvature="0"
         sodipodi:nodetypes="cccccccccccccccccccccccccccccccccccccscscscccc" />
      <path
         sodipodi:nodetypes="cccccccc"
         inkscape:connector-curvature="0"
         id="path3381"
         d="m 200,716.3622 -9.35715,28.85716 11,6 L 219,749.3622 l 2,-15 11,-7 -8,-12 z"
         style="fill:#000000;fill-rule:evenodd;stroke:#000000;stroke-width:1px;stroke-linecap:butt;stroke-linejoin:miter;stroke-opacity:1" />
      <path
         sodipodi:nodetypes="ccccccccc"
         inkscape:connector-curvature="0"
         id="path3383"
         d="m 321,716.3622 -5,16 10,9 4,7 17.64285,1.85716 11,-5 L 350,726.3622 l -3,-16 z"
         style="fill:#000000;fill-rule:evenodd;stroke:#000000;stroke-width:1px;stroke-linecap:butt;stroke-linejoin:miter;stroke-opacity:1" />
    </g>
  </g>
</svg>
